<?xml version="1.0" encoding="UTF-8"?>
<svg width="100px" height="100px" viewBox="0 0 100 100" version="1.1" xmlns="http://www.w3.org/2000/svg" xmlns:xlink="http://www.w3.org/1999/xlink">
    <title>Artboard</title>
    <g id="Artboard" stroke="none" stroke-width="1" fill="none" fill-rule="evenodd">
        <g id="logo" transform="translate(-0.277710, -0.002930)" fill-rule="nonzero">
            <rect id="Rectangle" fill="#000000" x="0" y="0" width="100" height="100" rx="19.6606"></rect>
            <path d="M33.0582722,20.5063463 L33.0582722,23.3989893 L33.0623939,23.3989893 L33.0616088,26.504761 L25.6003474,26.504761 L25.6003474,26.514273 L24.3530584,26.514273 L20.2761602,35.1690166 L33.0626883,35.1690166 L33.0626883,38.6180134 L33.0583704,38.6180134 L33.0626883,67.8303988 C33.0626883,71.8649789 29.8233678,75.1356255 25.8275287,75.1356255 L23.5643517,75.1356255 L18.728089,82.3186822 L60.5439691,82.3186822 L55.5751268,75.1356255 L50.1047193,75.1356255 C46.1087821,75.1356255 42.8694615,71.8649789 42.8694615,67.8303988 L42.8652418,42.276869 C42.9679885,38.3557394 46.1311567,35.2045876 50.0312166,35.1690166 L77.355286,35.1690166 L72.5568051,26.514273 L51.893318,26.514273 L51.893318,26.504761 L42.8616108,26.5046619 L42.8622977,23.3989893 L42.8650455,23.3989893 L42.8650455,17.1686203 L33.0582722,20.5063463 Z" id="Path" fill="#FFFFFF"></path>
            <path d="M38.4291715,18.6818231 L38.4291715,74.8600743 C38.5185719,73.2892049 39.5729286,69.2180629 42.8283432,67.4814268 L42.8283432,49.4123656 L42.9318751,49.4453604 L42.9318751,42.4412485 C42.9318751,38.4067674 46.1711956,35.1361209 50.1670347,35.1361209 L77.3877685,35.1361209 L74.8064396,30.5856131 L48.2684272,30.5856131 C44.5592389,30.5856131 42.8283432,33.251355 42.8283432,33.251355 L42.905575,17.1508843 L38.4291715,18.6818231 Z" id="Path" fill="#DFDFDF"></path>
            <polygon id="Path" fill="#DFDFDF" points="22.4725076 30.5133812 20.222775 35.1857617 33.0736794 35.1857617 33.0736794 30.5133812"></polygon>
        </g>
        <g id="Icon-T-White" transform="translate(53.691883, 42.387769)" fill="#FFFFFF">
            <path d="M25.8480231,6.2606104 C27.3870703,4.97656734 29.1041168,4.48803089 30.7508728,4.61154633 C32.5074359,4.74327982 34.13286,5.56665783 35.3470322,6.76261046 C36.5608547,7.95863303 37.3948986,9.55838884 37.5284856,11.2848774 C37.6631216,13.0271026 37.0798154,14.8518579 35.5418173,16.4532224 C35.4012363,16.6007974 35.2575079,16.7462743 35.1106323,16.8900026 C28.1347374,23.7616858 18.8684563,23.7798704 18.7736515,23.7798704 L18.7731969,23.7798704 C18.725812,23.7798704 9.43012079,23.7795207 2.43621612,16.8893032 L2.43471239,16.8875547 C2.29031962,16.7445258 2.14812999,16.6004477 2.00807354,16.4556703 L2.00695449,16.4542715 C0.468256996,14.8542709 -0.115643732,13.0299701 0.0186425944,11.2877449 C0.151704957,9.56153617 0.985154443,7.96160551 2.19880209,6.7651633 C3.41234483,5.56879103 5.03769897,4.74474858 6.79457678,4.61245556 C8.44119292,4.48845053 10.1585891,4.97639249 11.6984057,6.25980608 C11.8639905,4.28030673 12.7266053,2.73968586 13.9787903,1.68053743 C15.3142749,0.550888673 17.0546466,0 18.7732319,0 C20.491852,0 22.2321889,0.550888673 23.5676034,1.68053743 C24.8198934,2.73982574 25.6826131,4.28072637 25.8480231,6.2606104 Z" id="Shape"></path>
        </g>
    </g>
</svg>